<svg width="93" height="93" viewBox="0 0 93 93" fill="none" xmlns="http://www.w3.org/2000/svg">
<g clip-path="url(#clip0_3333_130)">
<mask id="mask0_3333_130" style="mask-type:luminance" maskUnits="userSpaceOnUse" x="0" y="0" width="93" height="93">
<path d="M93 0H0V93H93V0Z" fill="white"/>
<path d="M46.5015 73.7461C61.5491 73.7461 73.7476 61.5476 73.7476 46.5C73.7476 31.4524 61.5491 19.2539 46.5015 19.2539C31.4539 19.2539 19.2554 31.4524 19.2554 46.5C19.2554 61.5476 31.4539 73.7461 46.5015 73.7461Z" fill="black"/>
</mask>
<g mask="url(#mask0_3333_130)">
<path d="M46.5123 83.9826C67.2067 83.9826 83.9829 67.2065 83.9829 46.5121C83.9829 25.8176 67.2067 9.0415 46.5123 9.0415C25.8179 9.0415 9.04175 25.8176 9.04175 46.5121C9.04175 67.2065 25.8179 83.9826 46.5123 83.9826Z" fill="url(#paint0_linear_3333_130)"/>
</g>
<mask id="mask1_3333_130" style="mask-type:luminance" maskUnits="userSpaceOnUse" x="21" y="15" width="51" height="55">
<path d="M46.5005 69.4461C60.1386 69.4461 71.1945 57.2848 71.1945 42.2831C71.1945 27.2814 60.1386 15.1201 46.5005 15.1201C32.8623 15.1201 21.8064 27.2814 21.8064 42.2831C21.8064 57.2848 32.8623 69.4461 46.5005 69.4461Z" fill="white"/>
</mask>
<g mask="url(#mask1_3333_130)">
<path d="M-19.7273 55.11C-0.0594425 42.2162 16.3304 55.11 27.1478 55.11C37.9651 55.11 54.3549 42.2162 74.0228 55.11V74.4507H-19.7273V55.11Z" fill="url(#paint1_linear_3333_130)"/>
<path d="M-14.5674 56.5011C5.10047 45.7968 21.4903 56.5011 32.3077 56.5011C43.125 56.5011 59.5149 45.7968 79.1827 56.5011V72.5575H-14.5674V56.5011Z" fill="url(#paint2_linear_3333_130)"/>
</g>
</g>
<defs>
<linearGradient id="paint0_linear_3333_130" x1="46.5123" y1="9.0415" x2="46.5123" y2="83.9826" gradientUnits="userSpaceOnUse">
<stop stop-color="#788046"/>
<stop offset="1" stop-color="#FFD779"/>
</linearGradient>
<linearGradient id="paint1_linear_3333_130" x1="-19.7273" y1="49.3794" x2="-19.7273" y2="2556.51" gradientUnits="userSpaceOnUse">
<stop stop-color="#BEEEFF"/>
</linearGradient>
<linearGradient id="paint2_linear_3333_130" x1="37.1454" y1="50.419" x2="74.7925" y2="72.5376" gradientUnits="userSpaceOnUse">
<stop stop-color="#98CFE3"/>
<stop offset="0.801794" stop-color="#EDF5F8"/>
</linearGradient>
<clipPath id="clip0_3333_130">
<rect width="93" height="93" fill="white"/>
</clipPath>
</defs>
</svg>

